<?xml version="1.0" encoding="UTF-8"?>
<svg xmlns="http://www.w3.org/2000/svg" version="1.1" viewBox="0 0 434 435">
  <!-- Generator: Adobe Illustrator 28.7.5, SVG Export Plug-In . SVG Version: 1.2.0 Build 176)  -->
  <g>
    <g id="Capa_1">
      <path d="M120.08,202.64v-29.86c-6,0-11.85-.02-17.69.01-2.71.02-5.41-.03-6.59-3.07-1.18-3.04.8-4.87,2.79-6.71,15.47-14.35,30.92-28.73,46.39-43.09,4.19-3.89,5.78-3.89,9.82-.13,15.28,14.2,30.55,28.4,45.82,42.6.64.6,1.58,1.08,1.85,1.82.68,1.85,1.85,4.09,1.3,5.64-.47,1.34-2.98,2.7-4.65,2.78-6.34.32-12.7.13-19.3.13v29.6h30.93v-72.25c-5.93,0-11.78-.03-17.63.01-2.73.02-5.4-.08-6.55-3.13-1.08-2.86.67-4.67,2.58-6.44,15.57-14.43,31.11-28.9,46.67-43.34,4.15-3.85,5.76-3.82,9.82-.05,14.91,13.86,29.82,27.72,44.72,41.58.82.77,1.93,1.4,2.39,2.34.91,1.87,2.23,4.03,1.98,5.88-.37,2.74-3.09,3.17-5.63,3.16-6.1-.03-12.2,0-18.52,0v102.63c.73.1,1.43.26,2.13.28,8.49.23,11.43,3.36,11.67,12.01.04,1.43.81,3.23,1.86,4.17,1.8,1.6,3.49.97,5.44-.74,2.75-2.42,6.15-4.1,9.97-6.54V87.54c-5.24,0-10.32.02-15.39,0-1.75,0-3.53.09-5.23-.24-3.87-.73-5.22-4.63-2.77-7.72.46-.58,1.04-1.07,1.59-1.58,15.55-14.45,31.1-28.9,46.67-43.34,4.33-4.02,5.75-3.98,10.08.04,14.91,13.86,29.83,27.71,44.74,41.56,1.01.93,2.37,1.72,2.9,2.88.77,1.67,1.66,3.85,1.15,5.37-.44,1.32-2.7,2.72-4.26,2.84-4.85.38-9.74.18-14.61.2-1.61,0-3.22,0-5.4,0v5.03c0,94.06,0,188.13,0,282.19,0,7.65-.7,8.35-8.34,8.35-14.25,0-28.5,0-42.75,0-7.03,0-7.76-.65-8.46-7.65-4.43.16-7.53-2.35-10.53-5.32-.83-.82-2.73-.91-4.09-.8-2.02.17-2.67,1.51-2.75,3.64-.11,2.8-.38,5.8-1.51,8.3-1.5,3.31-4.73,4.58-8.4,4.56-8.12-.03-16.25.04-24.37-.02-6.46-.05-10.13-3.78-10.36-10.24-.06-1.81.3-4.31-.71-5.25-1.63-1.54-3.99-2.83-6.44-.11-2.03,2.25-4.76,3.85-7.68,6.13.15,6.57-2.69,12.03-10.19,14.19-1.53.44-3.21.47-4.82.47-52.87.02-105.75.02-158.62.01-9.86,0-15.07-5.14-15.07-14.97-.02-52.77-.02-105.54,0-158.31,0-9.99,5.2-15.08,15.36-15.09,21.37-.02,42.75,0,64.12,0,1.46,0,2.93,0,4.56,0ZM104.46,212.22c-17.89,0-35.13,0-52.36,0-5.79,0-6.61.84-6.61,6.78,0,51.88,0,103.76,0,155.64,0,6.11.67,6.74,6.95,6.74,51.23,0,102.46,0,153.69,0,1.62,0,3.29.22,4.86-.08,1.23-.24,2.72-.84,3.43-1.78,1.59-2.1.55-8.83-1.38-10.77-4.14-4.15-8.31-8.28-12.46-12.43-6.37-6.37-6.49-10.85.08-17.13,2.23-2.13,2.45-4.15.66-6-1.02-1.05-3.17-1.34-4.84-1.39-7.49-.23-11.06-3.66-11.1-11.05-.04-7.11-.01-14.22,0-21.33,0-9.21,3.03-12.35,12.36-12.24,2.66.03,3.56-1.06,4.54-3.24,1.17-2.61-.9-3.37-2.06-4.57-5.8-5.97-5.87-10.6-.08-16.42,4.32-4.33,8.75-8.56,12.92-13.02,1.06-1.13,1.85-2.98,1.88-4.51.17-9.1.11-18.21.08-27.31-.02-4.98-.95-5.9-5.92-5.9-16.49-.01-32.99,0-49.48,0-1.07,0-2.15.14-3.41.23,0,1.69,0,3.05,0,4.41,0,15.84-.02,31.68.02,47.51,0,2.77-.21,5.36-3.2,6.52-3.08,1.19-4.87-.8-6.6-2.91-5.29-6.42-10.62-12.8-16.13-19.42-5.58,6.71-10.92,13.13-16.24,19.57-1.66,2-3.4,3.85-6.32,2.83-3.06-1.06-3.32-3.62-3.31-6.4.05-15.96.02-31.93.02-47.89,0-1.34,0-2.68,0-4.45ZM294.77,77.18c.12.27.25.54.37.81,2.85,0,5.69,0,8.54,0,6.77,0,7.79,1.02,7.79,7.78,0,49.63,0,99.27,0,148.9,0,5.36-1.34,11.31.58,15.9,1.92,4.59,7.12,7.81,10.91,11.61,6.72,6.73,6.81,10.93.02,17.67-1.71,1.7-1.81,3.05-1,5.2.95,2.51,2.78,2.03,4.57,2.04,8.64.07,11.94,3.38,11.95,12.03,0,6.73,0,13.47,0,20.2,0,9.15-3.16,12.43-12.34,12.33-2.61-.03-4.27.77-4.4,3.22-.07,1.41.63,3.24,1.61,4.27,6.15,6.46,6.18,10.9-.18,17.25-3,3-5.87,6.16-9.06,8.94-2.6,2.26-3.29,4.75-2.29,8.06h39.72v-5.3c0-93.66,0-187.31,0-280.97,0-1.25-.05-2.5.03-3.74.23-3.84,1.75-5.31,5.66-5.39,3.57-.07,7.14-.01,11.9-.01-13.09-12.16-25.33-23.54-37.64-34.98-12.47,11.59-24.61,22.88-36.75,34.16ZM318.6,347c-1.99-1.65-4.13-3.36-6.18-5.17-2.24-1.98-2.67-4.27-1.32-7.05,1.35-2.79,2.5-5.7,3.56-8.62,1.04-2.84,2.9-4.18,5.95-4.06,2.69.11,5.39.02,8.07.02v-24.69c-4.34-.75-9.43-.22-12.2-2.49-3.01-2.48-4.1-7.48-5.6-11.54-2.47-6.7,5.24-7.9,6.78-11.97-5.92-5.92-11.78-11.78-17.91-17.9-4.22,5.23-8.14,8.83-16.88,5.33-8.86-3.55-8.56-9.18-8.14-16.12h-25.51c0,2.76-.08,5.34.02,7.93.12,3.19-1.29,5.13-4.3,6.19-2.7.95-5.41,1.96-7.94,3.26-3.18,1.64-5.73,1.15-7.99-1.5-1.66-1.95-3.35-3.88-4.7-5.43-6.55,6.53-12.36,12.32-18.53,18.47,5.48,4.12,8.93,8.15,5.49,16.8-3.5,8.82-9.05,8.77-16.04,8.12v25.54c2.79,0,5.28.11,7.75-.03,3.41-.19,5.32,1.4,6.38,4.53.92,2.7,1.99,5.38,3.27,7.93,1.44,2.88,1.12,5.3-1.31,7.36-2.07,1.75-4.23,3.39-6.14,4.91,6.79,6.78,12.6,12.58,18.75,18.72,4.29-5.24,8.11-9.2,16.91-5.62,8.8,3.58,8.9,9.18,8.39,16.03h25.67c-1.03-7.43-.09-12.4,8.26-16.08,8.94-3.95,12.45,1.02,16.93,5.6,6.12-6.11,11.93-11.92,18.51-18.48ZM203.1,120.67c4.25,0,7.32,0,10.39,0,5.94.02,7.2,1.27,7.2,7.25,0,25.07-.01,50.13.05,75.2,0,1.53.55,3.07.98,4.57.92,3.28,2.61,6.5,2.76,9.81.4,8.57.13,17.18.13,24.95,2.97,2.3,5.56,4.02,7.78,6.12,1.57,1.48,2.75,1.79,4.88,1.06,3.2-1.1,2.24-3.47,2.28-5.51.14-7.43,3.67-11.04,11.02-11.07,3.32-.02,6.64,0,10.2,0,0-2.19,0-3.81,0-5.42,0-33.3,0-66.59,0-99.89,0-5.76,1.31-7.03,7.03-7.05,3.16-.01,6.32,0,10.58,0-13.12-12.19-25.34-23.54-37.66-34.98-12.42,11.54-24.61,22.88-37.63,34.98ZM186.28,163.33c.14-.28.29-.55.43-.83-12.21-11.35-24.43-22.7-36.77-34.17-12.39,11.54-24.62,22.91-37.6,35,4.51,0,7.75-.02,10.98,0,5.15.03,6.58,1.47,6.59,6.73.02,9.47,0,18.94,0,28.41,0,1.32,0,2.63,0,3.89h40.04c0-1.62,0-2.96,0-4.31,0-9.47-.03-18.94.02-28.41.03-4.79,1.54-6.26,6.26-6.31,3.35-.03,6.69,0,10.04,0ZM114.33,212.42v40.35c4-4.8,7.46-8.99,10.96-13.15,3.85-4.57,6.27-4.54,10.16.12,3.47,4.16,6.92,8.34,10.9,13.15v-40.47h-32.02Z"/>
      <path d="M77.11,337.07c5.36,0,10.72.04,16.08-.01,3.22-.03,5.35,1.25,5.62,4.61.23,2.85-1.86,4.91-5.33,4.94-10.84.11-21.69.09-32.53.02-3.1-.02-5.34-1.4-5.41-4.86-.07-2.9,1.97-4.64,5.5-4.68,5.36-.06,10.72-.02,16.08-.02Z"/>
      <path d="M77.34,358.75c5.36,0,10.72-.05,16.08.02,3.42.05,5.57,1.97,5.4,4.81-.18,3.19-2.21,4.68-5.2,4.69-10.97.07-21.94.09-32.9-.01-3.46-.03-5.42-2.11-5.17-5.04.28-3.2,2.3-4.47,5.34-4.47,5.48,0,10.97,0,16.45,0Z"/>
      <path d="M262,276.37c18.39.04,33.06,14.69,33.07,33.03,0,18.49-14.86,33.22-33.4,33.09-18.38-.13-32.96-14.88-32.87-33.23.09-18.37,14.79-32.93,33.2-32.89ZM285.47,309.49c.03-13.1-10.38-23.57-23.48-23.6-13.05-.03-23.65,10.47-23.71,23.47-.05,12.97,10.52,23.54,23.58,23.59,13.11.05,23.58-10.36,23.61-23.46Z"/>
    </g>
  </g>
</svg>