<?xml version="1.0" encoding="UTF-8"?>
<svg xmlns="http://www.w3.org/2000/svg" version="1.1" viewBox="0 0 399 431">
  <!-- Generator: Adobe Illustrator 28.7.5, SVG Export Plug-In . SVG Version: 1.2.0 Build 176)  -->
  <g>
    <g id="Capa_1">
      <path d="M93.89,164.87c-2.22-1.36-4.02-2.45-5.83-3.56-.34.49-.61.76-.75,1.09-4.24,9.63-7.97,7.77-14.47,3.96-11.95-7.01-24.03-13.77-36.05-20.66-5.24-3-5.93-5.27-3.22-10.68,15.4-30.74,30.8-61.48,46.22-92.22,2.81-5.59,5.53-6.37,11.12-3.19,12.47,7.09,24.93,14.21,37.4,21.32,6.39,3.64,6.88,5.24,3.8,11.97-.2.44-.32.91-.59,1.71,2.35,1.2,4.57,2.59,6.98,3.44,1.02.36,2.61-.12,3.65-.72,6.05-3.49,11.94-7.27,18.02-10.7,12.81-7.21,25.25-6.28,37.37,1.89,1.2.81,3.23,1.2,4.61.82,7.68-2.11,15.27-2.15,22.91.07,9.82,2.85,19.66,5.61,29.49,8.44,6.02,1.73,8.22,1.46,14.71-2.12-.83-1.75-1.74-3.49-2.51-5.29-1.46-3.43-.76-6.13,2.49-8.01,13.83-7.99,27.69-15.92,41.61-23.75,3.78-2.13,6.91-.82,9.1,3.53,8.52,16.92,16.99,33.86,25.47,50.79,6.98,13.93,13.96,27.85,20.93,41.78,2.81,5.62,2.13,7.97-3.21,11.01-12.78,7.3-25.57,14.6-38.37,21.87-5.5,3.12-8.18,2.27-11.06-3.39q-3.29-6.47-10.21-3.91c-2.68,1-5.36,2-8.01,3,2.53,11.99-3.9,22.38-17.49,24.27-1.12,5.62-3.49,10.71-8.52,14.16-4.9,3.36-10.24,4.41-16.35,2.93-4.59,10.26-12.72,14.08-23.51,12.28-6.42,11.62-12.81,14.37-26.62,11.32-3.63-.8-7.19-2.07-10.65-3.47-1.8-.73-2.95-.65-4.19.83-1.12,1.33-2.44,2.5-3.69,3.72-10.11,9.75-24.59,7.28-30.9-5.28-.22-.44-.44-.87-.76-1.48-11.2,2.42-19.25-1.61-24.1-12.07-6.4,1.69-12.86,1.38-17.29-3.34-4.54-4.84-9.55-7.77-15.6-10.42-10.71-4.7-12.96-18.92-5.46-28.03,1.02-1.23,2.14-2.38,3.53-3.91ZM245.77,152.84c8.24,6.58,16.08,12.96,24.08,19.15,1.91,1.48,4.33,3.15,6.53,3.17,2.22.02,4.96-1.43,6.56-3.11,1.96-2.06,1.33-4.91-.44-7.22-.6-.78-1.35-1.47-2.08-2.15-14.74-13.85-29.49-27.69-44.24-41.53-3.9-3.66-7.79-7.31-11.76-11.03-6.49,5.33-12.59,10.69-19.05,15.58-8.89,6.73-18.99,9.32-30.03,7.02-7.71-1.61-14.15-5.17-16.55-13.37-2.3-7.86.63-14.07,6.37-19.44,4.1-3.83,7.97-7.91,11.95-11.88,3.66-3.65,7.33-7.29,11.25-11.19-7.76-4.12-15-4.11-22.15.09-7.32,4.3-14.6,8.66-21.83,13.1-2.84,1.75-5.48,1.93-8.43.28-3.21-1.79-6.58-3.29-10.07-5.01-10.97,21.91-21.73,43.38-32.56,65.01,2.65,1.67,4.97,3.38,7.53,4.62,1.04.51,2.86.48,3.85-.11,10.16-5.93,21.16-3.25,27.18,6.72.46.76,1.26,1.79,1.97,1.85,8.46.68,14.08,5.14,17.36,12.82,11.3-2.29,19.4,1.68,23.68,11.01,4.85.56,9.13.31,12.8,1.69,3.74,1.41,6.88,4.43,10.45,6.86,1.56-1.98,3.53-4.48,5.57-7.06,5.11,3.81,9.91,7.39,14.71,10.96,4.74,3.53,10.06,5.57,15.97,5.61,1.74.01,3.77-.61,5.17-1.62,3.19-2.31,2.96-4.72-.31-6.89-5.61-3.74-11.23-7.46-16.83-11.2-2.54-1.7-5.05-3.43-7.67-5.22,2.33-3.48,4.4-6.56,6.61-9.86,10.36,6.89,20.42,13.6,30.51,20.27,1.34.89,2.75,1.79,4.26,2.3,3.35,1.14,7.17-.58,8.92-3.77,1.87-3.39.67-5.5-2.33-7.76-8.23-6.2-16.17-12.79-24.42-19.37,2.58-3.22,4.91-6.11,7.49-9.33ZM226.15,93.06c3.06,3.65,5.63,7.39,8.85,10.46,16.99,16.17,34.13,32.18,51.26,48.2.71.67,2.09,1.37,2.84,1.12,5.28-1.8,10.48-3.84,15.91-5.88-10.13-20.21-20.09-40.08-30.06-59.97-3.29,1.11-6.19,1.9-8.94,3.05-4.01,1.68-7.81,1.48-11.96.21-10.84-3.34-21.79-6.29-32.7-9.37-10.43-2.94-19.48-.49-27.15,7.08-7.02,6.92-13.97,13.91-20.94,20.88-5.26,5.26-4.03,9.94,3.22,11.88,8.35,2.24,15.87.15,22.45-5.15,9.03-7.28,17.89-14.78,27.21-22.51ZM45.92,137.13c10.56,6.03,20.92,11.94,31.56,18.01,14.24-28.41,28.34-56.57,42.61-85.05-10.55-6.03-20.91-11.95-31.55-18.03-14.25,28.44-28.36,56.59-42.62,85.07ZM354.1,137.14c-14.35-28.64-28.44-56.75-42.63-85.06-10.79,6.16-21.13,12.06-31.55,18.02,14.34,28.62,28.43,56.73,42.63,85.05,10.73-6.12,21-11.98,31.56-18.01ZM164.82,193.81c-1.56-1.92-2.74-4.18-4.59-5.45-2.49-1.7-5.36-1.07-7.56,1-3.53,3.33-6.97,6.78-10.34,10.27-2.98,3.1-3.08,6.9-.42,9.65,2.75,2.86,6.7,2.81,9.95-.29,3.33-3.19,6.63-6.41,9.76-9.8,1.2-1.3,1.87-3.09,3.21-5.4ZM188.82,205.55c-1.64-1.88-2.89-4.07-4.78-5.29-2.55-1.66-5.36-.87-7.53,1.22-3.51,3.36-6.97,6.78-10.32,10.29-2.92,3.07-2.89,6.96-.13,9.65,2.74,2.68,6.57,2.62,9.67-.33,3.43-3.26,6.82-6.58,10.02-10.06,1.19-1.29,1.79-3.13,3.07-5.47ZM140.84,181.48c-1.82-1.88-3.33-4.09-5.4-5.43-2.41-1.56-4.33.03-5.96,2.08-3.64,4.57-7.44,9.01-11.16,13.51-2.32,2.81-1.92,5.12,1.25,6.88,2.87,1.59,5.58,1.08,7.87-1.12,3.59-3.44,7.15-6.92,10.53-10.57,1.11-1.2,1.61-2.95,2.87-5.36ZM104.17,188.23c1.68-1.26,2.89-1.87,3.71-2.83,4.14-4.84,8.1-9.82,12.27-14.63,2.01-2.32,1.32-4.14-.7-5.7-2.68-2.08-5.76-2.26-8.27-.01-4.08,3.66-8.1,7.48-11.57,11.7-1.2,1.46-1.5,4.65-.76,6.46.81,1.96,3.31,3.22,5.32,5.01ZM217.52,213.63c-6.04-4.31-11.91-8.51-17.92-12.8.12,2.67.45,4.91.25,7.1-.19,2.16-.92,4.28-1.4,6.35,9.25,4.34,16.55,4.11,19.06-.65Z"/>
      <path d="M200,241.34c50.98,0,101.96,0,152.94,0,7.56,0,9.13,1.63,9.01,9.3-1.27,77.43-59.43,144.23-136.04,156.23-83.26,13.04-162.48-38.64-182.7-119.7-2.96-11.87-3.83-24.31-5.05-36.55-.76-7.61,1.33-9.28,8.89-9.28,50.98,0,101.96,0,152.94,0ZM193.74,325.17v-71.64h-83.58c.19,2.69.34,5.15.54,7.6,1.76,21.75,7.7,42.31,17.77,61.67.52,1.01,1.86,2.26,2.83,2.27,20.72.13,41.44.1,62.45.1ZM206.18,325.18h3.55c19.11,0,38.22-.07,57.32.08,2.72.02,3.9-1.01,5.03-3.25,6.86-13.66,11.95-27.94,14.71-42.96,1.54-8.37,2.3-16.88,3.43-25.53h-84.04v71.67ZM284.14,325.18c13.7,0,27.05-.06,40.41.06,2.54.02,3.99-.7,5.28-2.97,8.62-15.06,14.67-31.06,17.71-48.12,1.21-6.77,1.75-13.67,2.6-20.57h-48.1c-2.45,27.3-3.81,38.08-17.9,71.6ZM98.13,253.53h-47.66c-.15.43-.3.66-.28.88,1.21,24.72,8.11,47.74,20.83,68.98.58.97,2.35,1.67,3.58,1.71,5.61.18,11.23.08,16.85.08,8.06,0,16.12,0,24.69,0-11.12-22.93-16.97-46.66-18.02-71.65ZM319.94,337.15c-13.87,0-26.62.08-39.36-.07-2.49-.03-3.74.83-4.99,2.88-9.9,16.21-22.15,30.45-36.76,42.6-4.94,4.11-10.15,7.92-15.23,11.86,39.52-6.12,71.17-25.31,96.34-57.28ZM80.22,337.16c12.22,16.14,26.43,28.7,42.96,38.66,16.58,9.99,45.54,20.01,53.14,18.51-.14-.19-.25-.43-.43-.56-21.34-14.58-38.79-32.85-52.28-54.89-.49-.79-1.67-1.65-2.53-1.66-13.33-.1-26.67-.07-40.86-.07ZM206.12,391.29c22.96-14.14,42.25-31.25,56.8-53.86h-56.8v53.86ZM136.99,337.32c14.73,22.83,34.05,39.87,56.76,53.87v-53.87h-56.76Z"/>
    </g>
  </g>
</svg>