<?xml version="1.0" encoding="UTF-8"?>
<svg xmlns="http://www.w3.org/2000/svg" version="1.1" viewBox="0 0 417 412">
  <!-- Generator: Adobe Illustrator 28.7.5, SVG Export Plug-In . SVG Version: 1.2.0 Build 176)  -->
  <g>
    <g id="Capa_1">
      <path d="M130.9,144.42c-.45-6.23-.99-12.06-1.28-17.9-.91-18.25,2.66-26.13,16.73-37.3-12.2-14.05-13.06-27.65-2.4-38.19,9.35-9.25,24.35-9.58,34.24-.82,8.75,7.75,12.63,23.18,1.57,35.91,5.21,4.21,10.44,8.44,15.62,12.63,1.66-2.22,3.5-5.09,5.76-7.56,2.2-2.41,4.85-4.4,7.55-6.8-6.57-5.43-10.25-12.48-9.91-21.22.25-6.47,2.78-12.09,7.4-16.68,9.05-9.01,23.38-9.69,33.38-1.6,11.13,9,11.93,22,2.57,36.71,5.2,4.21,10.35,8.39,15.13,12.26,4.12-4.48,8.59-9.36,13.27-14.46-6.16-5.06-9.83-12.11-9.49-20.82.26-6.6,2.88-12.29,7.66-16.93,9.26-8.99,23.79-9.38,33.68-.91,10.73,9.2,11.32,23.07,1.78,36.39,3.85,2.95,8.01,5.57,11.47,8.91,7.25,6.98,9.95,15.98,10.44,25.83.3,5.95.84,11.89,1.3,18.2,5.56-.35,10.78-.65,15.99-1.03,8.04-.59,16.08-1.21,24.11-1.87,2.99-.25,5.84-.1,6.9,3.28,1.06,3.36-1.12,5.11-3.75,6.63-55.18,31.85-110.35,63.74-165.51,95.62-5.6,3.24-11.17,6.53-16.81,9.7-3.91,2.2-6.41,1.35-8.12-2.82-3.9-9.47-7.82-18.95-11.47-28.52-1.05-2.77-2.64-4.32-5.31-5.44-35.77-15-71.51-30.08-107.26-45.14-.79-.33-1.55-.72-2.34-1.03-2.63-1.02-3.95-2.88-3.4-5.71.53-2.71,2.59-3.7,5.1-3.88,7.68-.56,15.36-1.05,23.03-1.61,17.29-1.25,34.57-2.52,52.36-3.82ZM332.72,139.99l-.15-.53c-85.16,6.18-170.32,12.36-256.62,18.62,1.93.95,2.83,1.45,3.77,1.85,29.22,12.33,58.45,24.61,87.63,37.02,2.54,1.08,4.68,1.22,7.3.28,51.49-18.63,103.01-37.17,154.53-55.75,1.2-.43,2.36-.99,3.53-1.49ZM317.76,130.83c-.62-7.91-1.03-15.33-1.82-22.71-1.39-12.93-11.71-22.72-24.53-23.56-12.65-.83-24.49,7.76-27.16,20.43-.96,4.56-.48,9.47-.31,14.2.19,5.06.8,10.11,1.26,15.45,17.74-1.29,34.98-2.54,52.56-3.81ZM202.48,139.23c18.28-1.34,35.51-2.6,53.06-3.88-.72-8.6-1.02-16.66-2.14-24.61-1.72-12.26-13.28-21.66-25.88-21.63-12.73.03-24.77,9.64-25.8,22.05-.76,9.14.43,18.44.76,28.07ZM193.29,139.89c-.75-8.66-.99-16.97-2.28-25.12-1.97-12.43-13.71-21.34-26.63-20.96-12.68.38-24.15,9.98-25.01,22.34-.63,9.03.52,18.18.89,27.59,18.02-1.31,35.33-2.57,53.03-3.86ZM316.98,156.91c-.1-.23-.21-.47-.31-.7-46.43,16.73-92.86,33.47-139.47,50.27,3.47,8.59,6.79,16.78,10.23,25.3,43.46-25.11,86.51-49.99,129.55-74.87ZM301.33,59.65c0-8.48-6.9-15.44-15.29-15.42-8.41.02-15.41,7.03-15.39,15.41.02,8.49,6.88,15.34,15.38,15.33,8.55,0,15.3-6.77,15.31-15.32ZM146.18,68.81c0,8.5,6.88,15.43,15.3,15.42,8.45-.01,15.33-6.92,15.33-15.39,0-8.58-6.72-15.3-15.3-15.3-8.58,0-15.34,6.73-15.33,15.28ZM223.69,79.54c8.6.02,15.34-6.65,15.37-15.23.03-8.53-6.73-15.38-15.23-15.44-8.43-.06-15.4,6.85-15.42,15.29-.03,8.52,6.77,15.35,15.29,15.37Z"/>
      <path d="M348.18,263.63c0,27.37,0,54.75,0,82.12,0,5.72-1.36,7.05-7.14,7.06-14.42,0-28.84,0-43.26,0-5.46,0-6.9-1.45-6.9-6.94,0-45.7.02-91.41-.06-137.11,0-3.46,1.09-5.64,4.15-7.38,14.76-8.37,29.41-16.93,44.11-25.4,5.82-3.36,9.09-1.51,9.09,5.17.01,27.5,0,54.99,0,82.49ZM338.36,343.07v-155.42c-1.16.61-2,1.02-2.82,1.49-10.68,6.16-21.31,12.4-32.06,18.42-2.35,1.31-3.09,2.77-3.09,5.42.09,42.03.06,84.05.06,126.08v4h37.9Z"/>
      <path d="M274.77,284.73c0,20.4,0,40.8,0,61.21,0,5.4-1.5,6.87-7,6.87-14.54,0-29.08.01-43.61,0-5.28,0-6.7-1.43-6.71-6.74-.01-31.76.03-63.53-.06-95.29,0-3.38,1.26-5.38,4.13-7.01,14.74-8.39,29.41-16.92,44.11-25.39,5.84-3.36,9.13-1.52,9.14,5.14.01,20.4,0,40.8,0,61.21ZM264.91,343.08v-112.93c-1.2.6-2.07.98-2.88,1.44-10.68,6.15-21.32,12.39-32.07,18.42-2.23,1.25-2.96,2.64-2.95,5.15.09,28.11.05,56.21.06,84.32,0,1.17.13,2.34.2,3.6h37.64Z"/>
      <path d="M201.36,306.27c0,13.19.01,26.37,0,39.56,0,5.44-1.53,6.97-6.94,6.97-14.53.01-29.06.01-43.59,0-5.52,0-6.86-1.34-6.87-6.97-.02-17.46.05-34.92-.06-52.38-.02-3.47,1.23-5.61,4.25-7.33,14.74-8.37,29.38-16.92,44.07-25.39,5.78-3.33,9.11-1.42,9.13,5.24.02,13.43,0,26.86,0,40.29ZM191.54,272.62c-.98.4-1.45.53-1.86.76-11.32,6.51-22.67,12.98-33.88,19.66-1.12.67-2.05,2.66-2.07,4.05-.16,12.95-.09,25.9-.09,38.85,0,2.29,0,4.58,0,6.96h37.91v-70.28Z"/>
      <path d="M98.79,352.81c-7.33,0-14.66.02-22,0-4.6-.02-6.28-1.61-6.37-6.07-.08-3.91,0-7.82-.02-11.73-.02-2.69,1.06-4.57,3.47-5.95,15.26-8.73,30.45-17.58,45.7-26.32,4.75-2.72,8.27-.73,8.31,4.77.09,13.07.07,26.15,0,39.23-.02,4.46-1.77,6.05-6.36,6.07-7.58.03-15.15,0-22.73,0ZM118,343.06v-28.08c-1.28.64-2.25,1.07-3.16,1.59-10.34,5.95-20.67,11.92-31,17.89-4.3,2.49-4.6,3.32-3.04,8.6h37.19Z"/>
      <path d="M61.12,316.15c-1.37-1.38-3.37-2.5-3.72-4-.36-1.54.43-3.93,1.58-5.09,1.66-1.68,4.08-2.61,6.19-3.83,32.98-19.05,65.96-38.1,98.94-57.15,4.51-2.61,7.31-2.51,8.99.29,1.74,2.91.53,5.37-4.01,7.99-34.25,19.78-68.51,39.56-102.77,59.32-1.45.83-3.02,1.45-5.2,2.48Z"/>
      <path d="M141.67,230.9c-.6.69-1.5,2.41-2.91,3.24-16.82,9.84-33.71,19.56-50.6,29.27-2.66,1.53-5.2,1.39-7.04-1.35-1.65-2.45-.77-5.17,2.36-6.99,16.74-9.73,33.5-19.43,50.3-29.06,3.96-2.27,8.04-.18,7.88,4.89Z"/>
    </g>
  </g>
</svg>