<?xml version="1.0" encoding="UTF-8"?>
<svg xmlns="http://www.w3.org/2000/svg" version="1.1" viewBox="0 0 382 377">
  <!-- Generator: Adobe Illustrator 28.7.5, SVG Export Plug-In . SVG Version: 1.2.0 Build 176)  -->
  <g>
    <g id="Capa_1">
      <path d="M32.34,181.2c0-37.8-.05-75.59.02-113.39.03-19.09,11.79-34.24,29.86-38.47,3.37-.79,6.93-1.08,10.4-1.08,75.63-.06,151.26-.07,226.89-.03,23.57.01,40.22,16.54,40.23,39.99.04,75.6.04,151.19,0,226.79-.01,23.28-16.64,39.94-39.89,39.95-75.88.05-151.76.05-227.64,0-23.24-.02-39.82-16.7-39.85-39.99-.05-37.92-.01-75.84-.01-113.77ZM231.65,131.8c-1.25,1.17-2.16,1.98-3.01,2.83-9.56,9.53-19.08,19.09-28.67,28.58-3.76,3.72-8.47,3.96-11.64.77-3.25-3.27-3.03-7.75.79-11.58,14.82-14.85,29.67-29.67,44.56-44.46,4.02-3.99,8.22-4.08,12.17-.17,14.99,14.86,29.92,29.78,44.8,44.74,1.18,1.18,2.23,2.81,2.61,4.4.84,3.49-.38,6.41-3.58,8.27-3.04,1.78-6.69,1.23-9.56-1.62-9.76-9.66-19.46-19.39-29.19-29.09-.92-.91-1.91-1.75-3.38-3.1,0,11.74.02,22.68,0,33.63-.08,31.42-23.5,54.77-55.05,54.85-14.13.04-28.26,0-42.38,0-24.45.02-40.76,16.17-40.82,40.46-.04,18.34-.01,36.68,0,55.02,0,1.32.11,2.63.19,4.19,1.52,0,2.63,0,3.74,0,62.14,0,124.27.02,186.41-.01,15.3,0,24.64-9.45,24.65-24.83.02-75.35.02-150.71,0-226.06,0-15.61-9.3-24.96-24.89-24.96-75.51-.02-151.03-.02-226.54.02-2.48,0-5.04.08-7.43.66-11.13,2.68-17.56,11.6-17.57,24.18-.01,75.35,0,150.71,0,226.06,0,1,0,2,.05,2.99.42,9.99,6.93,19.25,16.75,20.86,9.47,1.54,19.26,1.06,29.2,1.48,0-2.29,0-3.64,0-5,0-18.46-.03-36.93,0-55.39.06-31.44,23.5-54.8,55.02-54.85,14.63-.02,29.26.11,43.88-.03,19.94-.19,36.63-13.36,38.64-32.24,1.41-13.17.27-26.6.27-40.59Z"/>
      <path d="M78.58,112.44c.1-21.25,17.21-38.17,38.49-38.08,21.25.09,38.28,17.22,38.21,38.4-.07,21.08-17.35,38.19-38.54,38.14-21.15-.05-38.27-17.3-38.17-38.46ZM139.93,112.69c.07-12.54-10.19-22.96-22.74-23.12-12.68-.16-23.29,10.26-23.36,22.91-.07,12.67,10.43,23.14,23.14,23.09,12.62-.05,22.88-10.28,22.95-22.88Z"/>
      <path d="M258.12,273.47c6.08,6.02,11.86,11.35,17.1,17.17,1.68,1.87,2.95,5.19,2.61,7.59-.85,5.99-8.17,7.95-12.79,3.63-4.91-4.61-9.59-9.47-14.33-14.26-.95-.96-1.72-2.11-2.92-3.58-6.05,6.09-11.38,11.84-17.18,17.07-1.89,1.71-5.15,3.08-7.57,2.81-6.23-.72-8.28-8.16-3.77-12.9,4.73-4.97,9.69-9.72,14.54-14.58.86-.87,1.68-1.78,2.76-2.94-5.59-5.56-11.2-10.86-16.43-16.51-1.64-1.77-2.89-4.41-3.17-6.79-.36-3.05,1.68-5.37,4.59-6.59,3.27-1.37,6.16-.53,8.57,1.87,5.66,5.63,11.25,11.33,17.26,17.4,3.58-3.57,6.98-6.96,10.39-10.35,2.39-2.38,4.71-4.82,7.18-7.12,3.37-3.14,7.69-3.24,10.77-.38,3.24,3.01,3.5,7.57.16,11-5.65,5.81-11.55,11.37-17.78,17.46Z"/>
    </g>
  </g>
</svg>