<?xml version="1.0" encoding="UTF-8"?>
<svg xmlns="http://www.w3.org/2000/svg" version="1.1" viewBox="0 0 295.74 257.03">
  <!-- Generator: Adobe Illustrator 28.7.5, SVG Export Plug-In . SVG Version: 1.2.0 Build 176)  -->
  <g>
    <g id="Capa_1">
      <path d="M161.67,151.01c4.6,3.16,9.52,5.95,13.76,9.55,10.01,8.5,15.85,19.48,17.55,32.53.76,5.78-1.43,8.09-7.31,8.1-30.01.02-60.01.02-90.02,0-6.11,0-8.27-2.67-7.26-8.78,3.02-18.18,12.87-31.34,29.21-39.73.66-.34,1.33-.68,1.98-1.03.1-.06.17-.18.44-.5-6.92-7.04-10-15.57-8.78-25.44.91-7.36,4.36-13.47,9.93-18.38,11.33-9.98,28.51-9.72,39.65.6,12.33,11.42,12.57,27.05.83,43.08ZM179.43,189.04c-1.4-15.29-20.95-29.96-39.24-29.59-18.37.37-37.39,15.06-38.23,29.59h77.47ZM123.04,129.7c0,9.81,7.75,17.6,17.55,17.64,9.73.04,17.71-7.79,17.81-17.48.1-9.76-8.1-17.99-17.84-17.91-9.72.07-17.52,7.97-17.52,17.75Z"/>
      <path d="M32.72,131.94c-1.85,0-3.67-.85-4.85-2.46-1.96-2.67-1.38-6.43,1.3-8.39l106.3-77.8c2.18-1.59,5.15-1.54,7.27.14l98.35,77.8c2.6,2.06,3.04,5.83.98,8.43-2.06,2.6-5.83,3.04-8.43.98l-94.76-74.97-102.61,75.11c-1.07.78-2.31,1.16-3.54,1.16Z"/>
    </g>
  </g>
</svg>