<?xml version="1.0" encoding="UTF-8"?>
<svg xmlns="http://www.w3.org/2000/svg" version="1.1" viewBox="0 0 333 354">
  <!-- Generator: Adobe Illustrator 28.7.5, SVG Export Plug-In . SVG Version: 1.2.0 Build 176)  -->
  <g>
    <g id="Capa_1">
      <g>
        <path d="M234.78,310.82c-12.46,0-14.01-1.08-17.11-13.23-.85-3.33-2.14-5.45-5.54-6.81-3.56-1.42-6.65-4-10.06-5.86-1.11-.61-2.65-.97-3.87-.75-2.91.51-5.73,1.53-8.63,2.16-4.6,1-8.37-.54-10.92-4.44-2.29-3.52-4.35-7.19-6.29-10.92-2.17-4.18-1.86-8.96,1.84-11.82,6.15-4.76,8.48-10.47,6.85-17.96-.13-.59-.15-1.28.04-1.83,1.84-5.39-.99-8.83-4.76-12.01-2.53-2.14-4.69-4.63-5.1-8.15-.59-5.1,7.24-19.07,12.06-20.69,2.28-.76,5.25-1.03,7.42-.22,6.2,2.33,11.69,2.43,16.72-2.5,1.05-1.03,2.59-1.79,4.03-2.17,4.15-1.08,5.82-3.93,6.43-7.86.28-1.81.79-3.62,1.44-5.34,1.59-4.23,4.63-6.75,9.23-6.91,4.2-.15,8.41-.14,12.61,0,4.52.15,7.95,2.81,9.36,7.17.91,2.82,1.45,5.78,2.46,8.56.42,1.16,1.46,2.31,2.53,2.97,3.99,2.48,8.05,4.86,12.2,7.07,1.18.63,2.8.92,4.11.71,2.62-.42,5.15-1.33,7.73-1.96,4.9-1.21,9.1.32,11.72,4.51,2.18,3.47,4.2,7.04,6.11,10.67,2.21,4.19,1.57,8.19-1.52,11.68-2.44,2.76-6.13,4.93-7.37,8.1-1.19,3.04.08,7.04.25,10.62.02.41.08.86-.04,1.23-1.84,5.37,1.11,8.65,4.71,12.03,6.47,6.08,6.76,9.51,2.27,17.3-1.38,2.4-2.7,4.84-4.16,7.19-2.66,4.28-6.89,6.58-11.51,4.82-7.17-2.72-13.33-2.3-18.99,3.04-.43.41-1.05.72-1.63.85-5.12,1.15-6.76,4.82-7.86,9.54-2.18,9.38-4.92,11.24-14.62,11.24-.72,0-1.44,0-2.15,0ZM191.5,231.58c-.22.09-.43.19-.65.28-.31,3.36-.89,6.73-.86,10.09.03,3.47.85,6.92.92,10.39.03,1.35-.78,2.97-1.7,4.03-2.37,2.69-4.96,5.19-7.57,7.65-1.42,1.33-1.79,2.5-.65,4.25,1.56,2.4,2.99,4.91,4.3,7.46.94,1.82,2.08,2.16,3.99,1.54,3.21-1.03,6.54-1.71,9.77-2.7,2.52-.78,4.39-.02,6.52,1.44,4.19,2.89,8.47,5.86,13.12,7.8,3.77,1.57,5.79,3.63,6.61,7.54.73,3.45,1.08,8.19,3.39,9.79,2.53,1.75,7.1.5,10.77.68,1.76.08,2.61-.65,3.02-2.3.85-3.48,1.84-6.93,2.7-10.41.57-2.29,2.04-3.47,4.11-4.56,5.23-2.73,10.2-5.95,15.41-8.7,1.65-.87,3.82-1.48,5.6-1.21,3.52.52,6.97,1.63,10.4,2.68,1.8.55,2.89.19,3.77-1.47,1.39-2.62,2.85-5.22,4.44-7.73,1.05-1.65.64-2.77-.65-4.01-2.6-2.48-5.29-4.9-7.54-7.68-1.08-1.34-1.93-3.54-1.69-5.18.92-6.16.9-12.21.01-18.37-.24-1.7.73-3.97,1.87-5.4,2.16-2.71,4.78-5.07,7.32-7.46,1.33-1.26,1.66-2.37.64-4-1.58-2.52-3.05-5.11-4.43-7.74-.82-1.56-1.86-1.96-3.5-1.49-3.35.96-6.74,1.75-10.07,2.75-2.49.75-4.36.07-6.53-1.36-4.75-3.14-9.71-6.02-14.81-8.55-2.34-1.16-3.85-2.44-4.45-4.96-.8-3.39-1.78-6.73-2.63-10.11-.41-1.61-1.22-2.41-3.01-2.34-2.97.12-5.95.13-8.92,0-1.92-.09-2.78.72-3.21,2.49-.82,3.38-1.8,6.73-2.63,10.11-.59,2.4-1.99,3.76-4.31,4.73-3.67,1.53-7.82,2.82-10.55,5.48-5.5,5.35-10.99,4.99-17.61,2.81-6.51-2.15-4.97-2.51-8.43,3.31-.89,1.5-1.65,3.08-2.63,4.51-1.18,1.74-1.06,3.05.55,4.52,2.58,2.35,5.04,4.83,7.38,7.41,1.03,1.13,1.63,2.65,2.43,3.99Z"/>
        <path d="M235.14,213.52c15.72.08,28.47,12.98,28.37,28.7-.1,15.66-13.11,28.59-28.69,28.5-15.8-.09-28.64-13.13-28.52-28.97.12-15.68,13.04-28.32,28.84-28.24ZM234.86,261.7c10.97.02,19.72-8.76,19.66-19.75-.05-10.81-8.81-19.59-19.58-19.61-10.74-.02-19.58,8.74-19.69,19.52-.11,10.93,8.66,19.81,19.61,19.83Z"/>
      </g>
      <g>
        <path d="M129.53,224.73c-17.87,0-20.1-1.54-24.54-18.98-1.22-4.78-3.07-7.82-7.94-9.77-5.11-2.04-9.54-5.73-14.42-8.41-1.6-.87-3.8-1.39-5.55-1.08-4.18.73-8.23,2.19-12.38,3.09-6.6,1.43-12.01-.77-15.66-6.37-3.28-5.04-6.24-10.32-9.02-15.66-3.11-5.99-2.66-12.85,2.64-16.95,8.83-6.83,12.16-15.01,9.83-25.76-.18-.84-.22-1.84.05-2.63,2.64-7.72-1.42-12.66-6.83-17.23-3.63-3.07-6.72-6.64-7.31-11.69-.85-7.31,10.38-27.35,17.29-29.68,3.26-1.1,7.53-1.48,10.64-.32,8.9,3.34,16.77,3.48,23.99-3.58,1.51-1.48,3.71-2.57,5.78-3.11,5.95-1.54,8.35-5.64,9.22-11.28.4-2.6,1.14-5.19,2.07-7.65,2.28-6.06,6.64-9.68,13.24-9.92,6.02-.21,12.07-.21,18.09,0,6.49.22,11.4,4.03,13.42,10.28,1.31,4.05,2.08,8.28,3.53,12.28.6,1.66,2.1,3.31,3.63,4.26,5.72,3.56,11.55,6.97,17.49,10.13,1.69.9,4.01,1.32,5.89,1.02,3.75-.6,7.39-1.9,11.09-2.82,7.03-1.73,13.05.46,16.81,6.47,3.12,4.98,6.02,10.1,8.77,15.3,3.17,6,2.25,11.74-2.18,16.76-3.5,3.96-8.79,7.07-10.56,11.62-1.7,4.36.11,10.1.36,15.23.03.59.12,1.23-.06,1.76-2.65,7.7,1.59,12.4,6.76,17.26,9.29,8.72,9.69,13.64,3.26,24.82-1.98,3.44-3.87,6.94-5.96,10.31-3.81,6.13-9.88,9.44-16.52,6.92-10.28-3.91-19.12-3.29-27.23,4.35-.62.58-1.5,1.03-2.33,1.22-7.34,1.65-9.7,6.91-11.27,13.69-3.12,13.45-7.06,16.12-20.97,16.12-1.03,0-2.06,0-3.09,0ZM67.46,111.09c-.31.14-.62.27-.93.41-.45,4.83-1.28,9.66-1.24,14.48.04,4.97,1.22,9.93,1.32,14.9.04,1.93-1.11,4.26-2.45,5.78-3.39,3.86-7.11,7.45-10.86,10.97-2.03,1.91-2.57,3.59-.94,6.1,2.24,3.44,4.28,7.04,6.16,10.69,1.34,2.62,2.99,3.09,5.72,2.22,4.61-1.48,9.38-2.45,14.01-3.88,3.62-1.11,6.3-.03,9.35,2.07,6.01,4.14,12.14,8.4,18.82,11.19,5.4,2.26,8.31,5.21,9.49,10.82,1.04,4.95,1.55,11.75,4.86,14.04,3.63,2.51,10.18.72,15.45.97,2.53.12,3.75-.94,4.33-3.3,1.22-4.99,2.64-9.94,3.87-14.93.81-3.29,2.93-4.98,5.9-6.53,7.49-3.92,14.63-8.53,22.11-12.48,2.36-1.25,5.47-2.12,8.03-1.74,5.05.74,10,2.33,14.91,3.84,2.58.79,4.14.28,5.41-2.11,2-3.76,4.09-7.49,6.37-11.09,1.5-2.37.92-3.97-.94-5.75-3.72-3.55-7.59-7.03-10.81-11.01-1.56-1.93-2.77-5.08-2.42-7.42,1.32-8.83,1.28-17.52.02-26.35-.35-2.44,1.05-5.69,2.68-7.75,3.09-3.89,6.86-7.27,10.5-10.69,1.91-1.8,2.38-3.4.91-5.74-2.26-3.61-4.37-7.32-6.35-11.1-1.17-2.24-2.67-2.81-5.02-2.14-4.8,1.38-9.67,2.51-14.45,3.95-3.57,1.08-6.25.1-9.37-1.96-6.81-4.5-13.92-8.64-21.24-12.27-3.36-1.67-5.52-3.5-6.38-7.12-1.15-4.86-2.56-9.66-3.77-14.5-.58-2.32-1.75-3.46-4.32-3.36-4.26.17-8.54.19-12.79,0-2.75-.13-3.99,1.04-4.6,3.57-1.18,4.85-2.58,9.65-3.77,14.5-.85,3.44-2.86,5.39-6.19,6.78-5.26,2.2-11.22,4.05-15.13,7.85-7.89,7.68-15.77,7.16-25.26,4.03-9.33-3.08-7.13-3.59-12.09,4.74-1.28,2.15-2.37,4.41-3.77,6.48-1.69,2.49-1.53,4.37.79,6.48,3.69,3.36,7.23,6.93,10.59,10.63,1.47,1.63,2.34,3.8,3.48,5.73Z"/>
        <path d="M130.04,85.19c22.55.12,40.83,18.62,40.69,41.17-.14,22.46-18.8,41-41.15,40.88-22.66-.12-41.08-18.83-40.91-41.55.18-22.49,18.7-40.62,41.36-40.5ZM129.64,154.28c15.74.03,28.28-12.56,28.2-28.32-.07-15.51-12.64-28.1-28.08-28.13-15.4-.03-28.08,12.54-28.24,28-.16,15.68,12.42,28.41,28.12,28.44Z"/>
      </g>
    </g>
  </g>
</svg>