<?xml version="1.0" encoding="UTF-8"?>
<svg xmlns="http://www.w3.org/2000/svg" version="1.1" viewBox="0 0 443 340">
  <!-- Generator: Adobe Illustrator 28.7.5, SVG Export Plug-In . SVG Version: 1.2.0 Build 176)  -->
  <g>
    <g id="Capa_1">
      <path d="M402.08,165.37c-2.09,4.93-5.94,7.57-10.9,9.34-8.34,2.98-16.55,6.32-24.73,9.71-4.99,2.07-9.61,2.34-14.1-1.19-.61-.48-2.16-.47-2.87-.03-6.67,4.14-13.26,8.43-19.8,12.63,4.31,21.27-5.5,33.01-26.17,31.58-4.22,15.47-10.13,20.05-26.94,20.62-.7,7.32-3.62,13.59-9.97,17.83-6.22,4.14-12.99,4.72-20.33,2.63-2.15,10.37-7.93,17.16-18.41,19.4-10.66,2.28-18.02-4.05-25.91-10.14-1.75,2.01-3.4,3.99-5.15,5.87-5.68,6.09-12.61,8.45-20.71,6.27-8.08-2.17-12.88-7.63-14.87-15.75-.26-1.06-1.57-2.54-2.52-2.65-11.91-1.36-17.43-6.13-20.39-17.93-.09-.35-.25-.68-.37-1-14.39-1.85-20.11-6.75-22.51-19.28-19.71-3.22-27.13-14.91-19.67-31.72-1.27-.93-2.59-2.01-4.01-2.92-7.27-4.63-14.52-9.28-21.9-13.73-1.07-.65-2.81-.29-4.24-.24-3.26.12-6.86,1.31-9.72.33-10.25-3.52-20.24-7.81-30.37-11.73-3.81-1.47-5.69-4.61-7.44-7.93,0-2,0-4,0-6,2.21-5.25,4.51-10.47,6.61-15.76,10.6-26.8,21.15-53.63,31.71-80.44,3.56-9.05,9.02-11.48,18.01-7.97,9.07,3.54,18.11,7.14,27.17,10.68,5.62,2.19,8.58,6.12,8.56,12.29,0,.88.91,2.19,1.74,2.6,7.12,3.51,14.48,5.24,22.64,5.38,15.68.28,31.54,0,46.78,4.95.9.29,2.34-.24,3.2-.85,1.4-1.01,2.56-2.37,3.78-3.63,7.63-7.92,16.88-10.7,27.65-8.87,6.03,1.02,12.08,1.94,18.12,2.91,4.04.65,6.31,3.07,5.96,6.34-.37,3.46-3.22,5.41-7.5,4.82-6.8-.95-13.57-2.09-20.36-3.14-5.72-.88-10.67.76-14.73,4.8-16.26,16.15-33.43,31.2-52.57,43.91-3.32,2.2-3.29,4.31-.2,6.85,6.51,5.36,13.85,5.8,21.58,3.48,9.92-2.98,18.02-9.03,25.73-15.66,7.7-6.63,13.74-6.46,20.95.55,15.3,14.88,33.42,21.99,54.85,19.25,4.34-.56,7.6.49,11.02,3.07,14.36,10.83,28.9,21.43,43.56,32.25,7.99-5.13,15.95-10.24,24.14-15.5-10.68-27.07-21.28-53.94-31.99-81.08-3.73,1.34-7.21,2.34-10.47,3.82-11.37,5.16-23.06,6.02-35.15,3.27-2.79-.64-5.68-.88-8.5-1.39-3.79-.69-5.74-3.1-5.34-6.44.4-3.26,2.95-5.16,6.85-4.68,5.2.64,10.39,1.43,15.55,2.39,5.97,1.1,11.69.32,17.3-1.73,5.14-1.88,10.26-3.81,15.29-5.68.06-8.83,1.87-11.49,10.09-14.78,8.92-3.57,17.85-7.1,26.81-10.58,7.43-2.89,13.3-.32,16.29,7.14,4.69,11.7,9.31,23.42,13.92,35.15,1.61,4.1.64,7.15-2.6,8.53-3.3,1.42-6.18-.2-7.92-4.57-4.75-11.93-9.46-23.88-14.36-36.25-10.29,4.05-20.43,8.05-31.02,12.22,12.88,32.66,25.67,65.08,38.62,97.9,10.47-4.13,20.62-8.13,31.02-12.22-4.4-11.21-8.68-22.11-12.96-33-.37-.93-.82-1.83-1.1-2.78-.9-3.12.44-6.09,3.16-7.14,2.84-1.09,5.78.02,7.17,3.01,1.37,2.93,2.44,6.01,3.67,9.01,3.75,9.2,7.51,18.41,11.27,27.61v6ZM209.09,269.63c4.04,2.4,7.74,5.26,11.92,6.92,4.93,1.96,10.52-.97,12.82-5.76,2.3-4.81,1.11-9.5-3.25-12.88-3.06-2.37-6.21-4.65-9.15-7.16-3.27-2.81-3.04-7.13.35-9.18,2.62-1.59,4.97-.84,7.25.91,5.94,4.57,11.83,9.22,17.92,13.57,5.53,3.95,12.32,2.92,16.03-2.07,3.75-5.04,2.56-11.44-2.93-15.68-4.65-3.59-9.35-7.11-13.94-10.77-2.94-2.34-3.42-5.66-1.42-8.21,2.05-2.62,5.12-2.88,8.31-.62,1.63,1.16,3.17,2.44,4.76,3.65,5.37,4.09,10.63,8.32,16.14,12.2,5.45,3.84,12.41,2.62,15.97-2.43,3.25-4.61,2.5-11.89-2.96-15.46-5.73-3.75-11.1-8.12-16.3-12.6-1.42-1.23-2.48-3.97-2.19-5.77.26-1.61,2.43-3.71,4.1-4.08,1.71-.38,4.13.66,5.7,1.81,7.76,5.68,15.28,11.7,23.04,17.37,1.93,1.41,4.39,2.52,6.74,2.87,4.87.72,9.6-2.4,11.33-6.85,1.9-4.9.22-10.3-4.59-13.87-13.94-10.35-27.92-20.66-41.98-30.84-1.35-.98-3.45-1.53-5.12-1.38-24.33,2.21-44.95-5.78-62.34-22.56-2.33-2.24-3.69-2.34-6.1-.18-8.54,7.6-17.83,14.13-28.88,17.64-11.09,3.53-21.7,2.87-31.38-4.22-10.73-7.86-10.24-18.96.53-26.72,10.73-7.73,20.97-16.14,31.4-24.28.8-.62,1.42-1.47,2.41-2.53-2.34-.46-4.04-.99-5.77-1.09-11.84-.75-23.67-1.67-35.52-2.01-6.35-.18-12.41-.92-18.23-3.48-2.58-1.14-5.22-2.15-8.07-3.32-10.98,27.83-21.81,55.28-32.7,82.9,10.23,6.49,20.19,12.81,30.25,19.2,3.1-3.59,5.92-7.1,9-10.36,5.53-5.85,12.39-7.86,20.16-5.82,7.94,2.08,12.83,7.35,14.78,15.33.26,1.06.58,2.11.87,3.17,5.83-.21,10.85,1.27,15.18,4.91,4.41,3.71,6.44,8.69,7.35,14.11,13.47.8,19,5.52,22.79,19.2,19.93-.53,29.6,21.44,15.73,36.45ZM67.9,64.73c-12.97,32.89-25.76,65.31-38.62,97.92,10.54,4.14,20.68,8.13,31.05,12.21,12.97-32.9,25.75-65.29,38.61-97.9-10.55-4.16-20.62-8.13-31.04-12.23ZM114.55,221.7c.97-.47,3.44-.95,4.81-2.45,5.39-5.88,10.64-11.91,15.53-18.21,2.93-3.78,1.74-9.08-1.95-12.05-3.52-2.83-8.81-2.87-11.94.54-5.31,5.78-10.39,11.8-15.3,17.93-2.29,2.86-2.15,6.36-.39,9.54,1.69,3.06,4.45,4.62,9.24,4.7ZM126.29,231.37c.48,3.99,2.69,7.4,6.08,8.84,3.73,1.58,7.62.83,10.55-2.46,4.65-5.22,9.18-10.54,13.62-15.94,3.7-4.5,3.33-9.95-.66-13.36-3.98-3.39-9.51-2.91-13.32,1.39-4.55,5.14-9.02,10.35-13.32,15.7-1.34,1.66-1.99,3.87-2.96,5.83ZM204.97,254.27c-.5-4.06-2.64-7.35-6.12-8.83-3.69-1.57-7.65-.79-10.54,2.45-4.56,5.13-9,10.36-13.38,15.64-3.86,4.65-3.6,10.21.45,13.66,4.09,3.48,9.55,2.88,13.55-1.68,4.36-4.97,8.69-9.97,12.82-15.13,1.41-1.77,2.16-4.06,3.22-6.11ZM182.25,235.11c-.49-4.1-2.58-7.41-6-8.9-3.67-1.6-7.66-.85-10.55,2.4-4.65,5.21-9.17,10.54-13.62,15.93-3.76,4.56-3.46,9.85.56,13.35,3.99,3.49,9.67,2.91,13.58-1.56,4.36-4.97,8.7-9.97,12.83-15.13,1.41-1.76,2.16-4.05,3.21-6.1Z"/>
    </g>
  </g>
</svg>