<?xml version="1.0" encoding="UTF-8"?>
<svg xmlns="http://www.w3.org/2000/svg" version="1.1" viewBox="0 0 449 479">
  <!-- Generator: Adobe Illustrator 28.7.5, SVG Export Plug-In . SVG Version: 1.2.0 Build 176)  -->
  <g>
    <g id="Capa_1">
      <g>
        <path d="M124.12,362.73c1.73,3.12,3.41,6.02,4.96,8.98,4.13,7.87,1.91,16.19-5.71,20.76-5.78,3.47-11.65,6.79-17.6,9.96-7.82,4.17-16.34,1.88-20.72-5.82-17.3-30.37-34.52-60.79-51.65-91.26-4.34-7.72-1.88-16.26,5.7-20.75,5.8-3.44,11.67-6.77,17.61-9.94,7.78-4.16,16.15-1.75,20.76,5.81,1.36,2.23,2.61,4.53,4.14,7.19,1.26-.69,2.42-1.29,3.55-1.95,15.14-8.73,30.23-17.56,45.45-26.15,4.32-2.44,8.94-4.47,13.61-6.17,9.47-3.45,18.96-3.32,28.61-.08,17.61,5.91,35.34,11.47,53.04,17.11,2.13.68,4.38.96,6.58,1.42,15.73,3.27,23.87,18.15,18.13,33.14-.21.54-.39,1.08-1,2.76,3.85-1.86,6.92-3.09,9.76-4.74,20.42-11.82,40.78-23.76,61.19-35.6,9.13-5.3,18.62-9.76,29.4-10.31,9.76-.5,18.18,2.51,23.45,11.17,5.45,8.96,5.34,18.41-.03,27.36-1.84,3.07-4.79,5.86-7.87,7.77-37.34,23.19-74.8,46.18-112.23,69.23-12.13,7.47-25.1,9.38-38.86,5.72-24.84-6.62-49.69-13.19-74.47-20.02-4.05-1.12-7.44-1.23-10.82,1.43-1.45,1.14-3.18,1.92-4.99,2.99ZM118.13,352.25c3.36-1.93,6.58-3.57,9.56-5.56,3.15-2.12,6.23-2.42,9.9-1.42,25.63,7.01,51.35,13.7,76.95,20.82,12.6,3.51,23.9,1.76,35.03-5.19,36.01-22.48,72.25-44.6,108.41-66.85,6.31-3.88,8.73-10.19,6.46-16.95-1.98-5.87-7.33-8.73-14.82-7.98-8.68.88-16.24,4.69-23.62,8.97-20.84,12.09-41.64,24.27-62.5,36.32-9.31,5.38-19.46,7.57-29.97,5.36-15.49-3.26-30.82-7.27-46.21-10.98-1.82-.44-3.64-.92-5.38-1.58-3.21-1.23-4.74-4.16-3.9-7.13.92-3.21,3.82-4.95,7.28-4.29,1.22.23,2.4.67,3.61.99,12.3,3.26,24.56,6.7,36.92,9.68,7.27,1.76,13.12-2.08,14.55-8.79,1.33-6.23-3.11-12.44-10.03-13.99-1.95-.44-3.96-.65-5.85-1.25-18.07-5.72-36.19-11.27-54.13-17.38-8.93-3.04-17.39-2.78-25.86.93-3.31,1.45-6.57,3.06-9.7,4.86-15.06,8.63-30.06,17.35-45.08,26.05-.71.41-1.36.95-2.13,1.49,10.18,17.97,20.25,35.76,30.5,53.85ZM119.45,379.44c-.67-1.37-1.11-2.39-1.66-3.36-16.65-29.45-33.3-58.89-49.98-88.33-2.07-3.66-3.1-3.89-6.93-1.75-4.69,2.62-9.35,5.28-14.01,7.94-4.11,2.34-4.36,3.24-2.02,7.38,9.02,15.98,18.06,31.95,27.1,47.92,7.56,13.36,15.15,26.71,22.68,40.09,1.4,2.49,2.97,4.02,5.96,2.31,5.42-3.1,10.9-6.1,16.26-9.28,1.06-.63,1.72-1.91,2.59-2.92Z"/>
        <path d="M330.6,197.94c6.48,13.94,12.69,27.42,19.02,40.85,1.59,3.38,2.39,6.63-.11,9.83-2.52,3.24-5.93,3.14-9.56,2.42-4.9-.96-9.86-1.63-14.74-2.66-2.45-.52-3.83,0-5.04,2.32-2.49,4.75-5.39,9.29-8.03,13.96-1.74,3.08-4.07,5.04-7.79,4.78-3.55-.25-5.49-2.46-6.9-5.51-5.38-11.67-10.85-23.31-16.28-34.96-2.64-5.66-7.01-8.28-13.21-7.57-4.7.54-8.41,1.99-10.58,7.21-4.88,11.74-10.63,23.13-15.94,34.7-1.49,3.24-3.34,5.88-7.27,6.14-4.12.27-6.34-2.21-8.15-5.47-2.36-4.26-5.1-8.32-7.23-12.69-1.45-2.96-3.32-3.42-6.22-2.8-4.88,1.04-9.82,1.8-14.73,2.71-3.4.63-6.54.33-8.82-2.62-2.26-2.92-1.88-5.94-.37-9.14,6.43-13.65,12.75-27.35,19.3-41.45-2.39-1.06-4.61-2.06-6.84-3.03-11.36-4.97-16.65-14.01-15.37-26.3.21-1.99.3-4,.73-5.95,1.54-7.04.46-13.48-3.37-19.7-2.26-3.68-4.21-7.78-5.21-11.95-2.1-8.8.06-17.11,7.13-22.74,9.43-7.5,14.49-16.71,16.6-28.52,2.1-11.77,11.32-18.48,23.27-18.97,4.12-.17,8.28-.2,12.34-.82,2.49-.38,5.03-1.44,7.17-2.79,3.58-2.27,6.82-5.05,10.26-7.55,9.06-6.59,20.31-7.27,28.83-.02,9.49,8.08,19.71,11.66,32.1,11.47,9.88-.15,18.26,7.3,21.06,16.9,1.22,4.19,1.69,8.62,3.2,12.69,1.26,3.38,3.18,6.68,5.45,9.48,2.49,3.08,5.79,5.5,8.63,8.31,7.74,7.68,9.56,18.02,4.93,27.91-1.32,2.83-2.57,5.73-4.25,8.34-3.34,5.18-3.76,10.68-2.68,16.54.52,2.82.83,5.69,1.1,8.55.98,10.44-4.4,19.84-13.96,24.38-2.69,1.27-5.45,2.39-8.49,3.71ZM291.31,214.69c5.79.02,9.24-1.61,11.68-5.49,11.56-18.38,10.62-17.36,30.51-25.68,5.9-2.47,8.28-7.21,7.51-13.62-.34-2.85-.65-5.71-1.14-8.54-1.27-7.41-.39-14.39,3.54-20.94,1.6-2.67,2.9-5.52,4.26-8.33,2.98-6.17,2.17-10.84-2.73-15.61-2.96-2.88-5.97-5.69-9-8.49-3.89-3.58-6.38-7.93-7.52-13.1-.94-4.26-1.9-8.53-3.03-12.75-1.5-5.62-5.56-8.87-11.32-9.26-4.11-.28-8.23-.59-12.35-.71-5.43-.16-10.27-1.87-14.59-5.13-3.49-2.63-6.95-5.31-10.53-7.82-4.86-3.42-9.73-3.41-14.6.03-3.78,2.66-7.18,5.96-11.21,8.12-3.97,2.13-8.41,3.68-12.82,4.6-4.23.88-8.71.63-13.07.88-6.15.36-10.49,3.63-11.78,9.66-4.95,23.13-5.13,20.32-19.72,34.23-4.59,4.38-5.35,9.23-2.57,15,1.95,4.05,4.53,7.87,5.91,12.09,1.4,4.28,2.18,8.92,2.32,13.43.14,4.32-.91,8.67-1.4,13.02-.7,6.22,1.74,10.63,7.49,13.26,3.86,1.77,7.79,3.36,11.7,5.01,4.87,2.05,8.73,5.27,11.58,9.72,2.22,3.47,4.46,6.93,6.77,10.34,3.72,5.49,8.22,7.14,14.57,5.38,2.77-.76,5.6-1.39,8.25-2.46,7.85-3.17,15.57-2.67,23.39.16,3.73,1.35,7.62,2.28,9.93,2.96ZM233.24,252.43c4.16-8.94,7.96-17.13,11.98-25.78-14.8-.18-20.24-11.55-27.07-22.07-5.32,11.43-10.3,22.15-15.59,33.51,5.58-.93,10.36-1.64,15.1-2.56,3.74-.73,6.22.64,8.01,3.89,2.28,4.13,4.73,8.17,7.55,13.01ZM320.4,204.52c-6.67,10.55-12.24,21.77-27.01,22.23,4.06,8.71,7.9,16.96,11.96,25.68,2.75-4.73,5.21-8.77,7.48-12.93,1.87-3.42,4.46-4.73,8.34-3.95,4.73.95,9.52,1.64,14.85,2.53-5.28-11.34-10.3-22.13-15.63-33.57Z"/>
        <path d="M67.42,303.26c-.02,3.47-2.65,6.11-6.12,6.14-3.62.03-6.36-2.78-6.25-6.39.11-3.45,2.83-6,6.32-5.94,3.48.06,6.06,2.71,6.05,6.2Z"/>
        <path d="M269.23,74.95c33.6-.06,60.76,27,60.86,60.63.09,33.54-27.05,60.91-60.55,61.04-33.61.13-61.13-27.3-61.12-60.91,0-33.52,27.2-60.68,60.81-60.75ZM269.27,86.95c-27.01.02-48.89,21.92-48.85,48.89.04,26.87,22.15,48.85,49.07,48.76,26.74-.08,48.55-21.99,48.59-48.8.03-27.09-21.74-48.88-48.81-48.86Z"/>
        <path d="M282.06,120.98c4.99,0,9.85-.03,14.71,0,4.75.04,7.98,2.12,9.08,5.76,1.16,3.84-.13,7.05-4.05,9.97-2.2,1.64-4.44,3.24-6.67,4.85q-5.23,3.77-3.16,10.05c.97,2.96,1.99,5.91,2.85,8.9,1.08,3.78-.06,7.23-3.06,9.24-3.12,2.09-6.37,2.1-9.46-.03-3.7-2.55-7.35-5.18-10.9-7.93-1.56-1.21-2.68-1.2-4.22.02-3.14,2.47-6.42,4.76-9.67,7.08-3.97,2.84-7.51,3.11-10.71.86-3.33-2.34-4.19-5.77-2.61-10.72,1.17-3.68,2.28-7.39,3.62-11.01.74-1.98.38-3.2-1.39-4.38-3.42-2.29-6.74-4.74-10.04-7.21-3.66-2.74-4.86-6.12-3.63-9.76,1.23-3.65,4.21-5.62,8.76-5.68,3.87-.05,7.76-.18,11.62.05,2.55.15,3.84-.6,4.5-3.16,1-3.86,2.32-7.63,3.62-11.4,1.39-4.04,4.26-6.27,7.91-6.33,3.79-.07,6.78,2.22,8.21,6.44,1.59,4.71,3.09,9.46,4.69,14.4ZM253.07,132.59c3.01,3.39,6.48,5.75,7.52,8.91,1.03,3.11-.41,7.03-.85,11.41,6.47-7.49,12.92-6.66,19.76-.33-4.42-8.64-2.22-14.82,6.23-19.39-9.63,1.41-14.81-2.39-16.42-11.89-1.73,9.31-6.64,13.54-16.25,11.3Z"/>
      </g>
    </g>
  </g>
</svg>