<?xml version="1.0" encoding="UTF-8"?>
<svg xmlns="http://www.w3.org/2000/svg" version="1.1" viewBox="0 0 374 425">
  <!-- Generator: Adobe Illustrator 28.7.5, SVG Export Plug-In . SVG Version: 1.2.0 Build 176)  -->
  <g>
    <g id="Capa_1">
      <path d="M130.97,104.1c0-2.11-.04-3.72,0-5.33.13-4.78,1.87-6.57,6.63-6.58,10.5-.04,21-.01,31.5-.01,1.34,0,2.69,0,4.44,0,0-1.81,0-3.27,0-4.73.01-6.25,1.53-7.81,7.67-7.82,10.13-.02,20.25,0,30.38,0,1.35,0,2.7,0,4.54,0,0-2.96-.05-5.55.01-8.13.09-3.47,2.05-5.41,5.41-5.43,14-.09,28-.1,42,0,3.76.03,5.42,2.2,5.43,6.56.03,15.5.01,31.01.01,46.51,0,1.34,0,2.67,0,4.05,28.32-2.76,46.48,24.66,34.16,49.11,1.19.34,2.39.54,3.46,1.02,4.41,1.98,9.11,3.56,13.1,6.2,6.88,4.56,10.32,11.28,10.25,19.73-.1,12.13-.02,24.26-.02,36.39,0,1.36,0,2.73,0,4.02,6.4,1.45,7.42,2.84,6.3,9.64-8.62,52.35-35.78,92.22-82.48,117.22-85.17,45.6-189.05,6.39-223.59-83.84-4.24-11.09-6.28-23.06-8.86-34.73-1.22-5.52.32-7.03,6.36-8.24v-8.41c0-9.5,0-19.01,0-28.51,0-15.95,7.28-25.35,22.76-29.4,1.3-.34,2.62-.64,3.99-.98-12.36-23.52,5.05-51.9,34.16-49.17,0-4.09-.03-8.15,0-12.2.04-5.36,1.56-6.9,6.94-6.91,11.61-.03,23.21,0,35.44,0ZM133.67,239.76h10.74c0-10.05-.06-19.8.03-29.55.04-3.66,2.36-5.92,5.49-5.78,2.98.13,4.91,2.32,4.95,5.88.07,6.63.02,13.25.03,19.88,0,3.2,0,6.41,0,9.62h47.81c0-9.24,0-18.22,0-27.2,0-5.76,1.61-8.24,5.29-8.18,3.64.07,5.21,2.59,5.22,8.35,0,8.97,0,17.93,0,26.99h10.73c0-13.67-.09-27.04.05-40.41.05-4.99-1.81-9.1-5.92-11.39-4.15-2.31-8.86-3.73-13.45-5.12-3.3-.99-6.38-.14-9.58,1.68-11.12,6.34-22.38,5.96-33.47-.41-1.16-.67-2.44-1.53-3.69-1.57-7.21-.23-13.9,1.46-19.53,6.21-3.1,2.62-4.77,5.95-4.71,10.17.11,7.87.03,15.75.03,23.63,0,5.71,0,11.43,0,17.21ZM123.15,239.89c0-1.63,0-2.98,0-4.34,0-11.88-.01-23.76.01-35.63,0-2-.36-4.25.41-5.94,2.03-4.44-.3-6.47-3.78-7.97-2.62-1.13-5.31-2.25-8.08-2.85-4.55-.98-8.69-.71-13.2,1.87-9.87,5.66-20.54,5.67-30.4-.02-4.9-2.83-9.42-2.76-14.3-1.63-11.34,2.61-15.63,8.14-15.63,19.73,0,10.88,0,21.75,0,32.63,0,1.33.11,2.66.17,4.02h10.65c0-1.05,0-1.79,0-2.54,0-8.88-.03-17.75.02-26.63.02-3.82,1.95-6.07,5.07-6.16,3.27-.09,5.31,2.24,5.4,6.23.05,2.25,0,4.5,0,6.75,0,7.46,0,14.91,0,22.38h47.75c0-1.74,0-3.22,0-4.7,0-8.38-.02-16.75.03-25.13.02-3.22,1.66-5.22,4.93-5.5,2.99-.27,5.3,1.94,5.44,5.39.18,4.37.07,8.75.07,13.13,0,5.58,0,11.17,0,16.91h5.43ZM298.09,239.89c0-9.88-.03-19.49.01-29.09.02-4.06,1.99-6.37,5.25-6.37,3.26,0,5.21,2.32,5.23,6.38.04,8.13.01,16.25.01,24.38,0,1.57,0,3.13,0,4.63h10.83v-4.3c0-11.5-.26-23.01.09-34.5.24-7.75-3.35-12.76-9.99-15.53-3.95-1.65-8.38-2.26-12.66-2.91-1.53-.23-3.45.44-4.86,1.26-11.87,6.92-23.66,6.95-35.51-.01-1.13-.67-2.63-1.5-3.75-1.26-5.31,1.11-10.65,2.27-15.78,4-2.93.98-4.98,3.05-3.11,6.93.85,1.78.55,4.17.56,6.28.04,12,.02,24.01.02,36.01,0,1.33,0,2.67,0,4.02h5.42c0-1.61,0-2.96,0-4.32,0-8.13-.03-16.25.02-24.38.03-4.33,2.05-6.76,5.36-6.69,3.18.06,5.03,2.39,5.11,6.52.05,2.75.01,5.5.01,8.25,0,6.85,0,13.69,0,20.7h47.73ZM32.17,250.72c5.09,29.23,17.35,54.33,37.09,76.09,11.07-10.39,22.95-18.81,35.88-25.77.75-.4,1.26-2.2,1.08-3.21-1.84-10.44-3.97-20.83-5.76-31.28-.9-5.23-1.26-10.55-1.86-15.83H32.17ZM259.18,250.73c-.18.53-.34.88-.4,1.24-2.57,15.49-5.18,30.98-7.6,46.5-.14.88.95,2.35,1.86,2.94,6.39,4.13,13.05,7.85,19.28,12.2,5.59,3.91,10.72,8.47,16.29,12.93,19.55-21.7,31.84-46.8,36.78-75.82h-66.2ZM173.28,374.46v-80.53c-16.39-.14-45.31,6.63-53.68,12.55,4.38,14.21,10.1,27.85,18.28,40.37,5.02,7.68,10.86,14.65,18.33,20.1,5.09,3.71,10.6,6.48,17.06,7.51ZM184.21,293.77v80.7c9.04-1.49,16.28-5.99,22.57-12.04,16.15-15.55,24.6-35.4,31.37-56.46-17.27-7.51-34.99-11.55-53.94-12.19ZM245.16,171.7s-.16-.45-.36-.9c-7.34-16.2-2.88-32.18,11.69-42.6,1.11-.8,1.91-2.8,1.93-4.25.14-14.25.09-28.5.09-42.75v-4.4h-31.52v102.78c6.09-2.64,12.1-5.24,18.18-7.88ZM115.92,296.03c19.03-8.03,37.83-12.07,57.38-12.86v-32.39h-64.63c2.41,15.06,4.77,29.79,7.24,45.25ZM248.89,250.83h-64.67v32.34c19.68.71,38.51,4.89,57.43,12.8,2.47-15.38,4.83-30.11,7.24-45.14ZM178.73,178.5c12.32.03,22.47-10.06,22.51-22.38.04-12.29-10.1-22.49-22.39-22.52-12.29-.03-22.49,10.12-22.51,22.4-.03,12.32,10.06,22.46,22.39,22.5ZM296.61,156.08c0-12.4-10.04-22.47-22.38-22.47-12.28,0-22.43,10.15-22.47,22.46-.05,12.21,10.15,22.38,22.48,22.43,12.34.05,22.37-10.01,22.37-22.42ZM60.96,155.87c-.06,12.43,9.84,22.53,22.18,22.63,12.32.09,22.49-9.89,22.66-22.24.17-12.2-10-22.53-22.28-22.65-12.32-.12-22.51,9.93-22.57,22.27ZM184.18,123.48c11.34,2.36,19.52,8.39,24.33,18.57,4.78,10.11,4.24,20.26-.99,30.3,2.95.74,5.56,1.4,8.27,2.09v-84.02h-31.61v33.07ZM280.86,334.42c-8.66-8.91-26.74-21.57-33.33-23.37-7.19,21.93-16.71,42.59-33.28,59.38,25.45-6.07,47.5-18.11,66.62-36.02ZM75.94,333.66c19.85,18.64,41.95,30.71,67.42,36.75-16.76-16.8-26.15-37.71-33.86-60.81-11.52,8.26-22.33,16.01-33.56,24.06ZM112.44,171.68c6.13,2.69,12.2,5.35,18.23,8v-64.85h-31.6c0,3.18.14,6.15-.04,9.11-.14,2.25.73,3.48,2.53,4.86,3.03,2.33,6.08,4.92,8.29,8,8.02,11.19,8.32,23.12,2.6,34.89ZM173.45,102.93h-31.74v71.58c2.92-.77,5.54-1.46,8.36-2.2-5.32-10.13-5.79-20.3-.93-30.45,4.9-10.25,13.31-16.19,24.31-18.46v-20.47Z"/>
      <path d="M196.85,47.94c-3.57-1.86-4.91-4.28-3.63-7.43,1.34-3.31,4.27-3.39,7.3-2.88,5.66.94,11.34,1.78,16.99,2.78,5.11.9,6.77,4.98,3.63,9.08-3.57,4.66-7.4,9.12-11.01,13.74-1.99,2.55-4.34,3.95-7.43,2.42-2.94-1.46-3.39-4.08-2.14-7.57-1.59.49-2.85.8-4.04,1.26-26.77,10.3-53.53,20.61-80.3,30.92-1.4.54-2.78,1.16-4.23,1.5-2.83.67-4.92-.46-6.02-3.12-1.05-2.56-.19-4.69,2.02-6.19,1.01-.69,2.25-1.06,3.41-1.51,27.23-10.49,54.46-20.98,81.69-31.47,1.03-.4,2.04-.83,3.77-1.54Z"/>
    </g>
  </g>
</svg>