<?xml version="1.0" encoding="UTF-8"?>
<svg xmlns="http://www.w3.org/2000/svg" version="1.1" viewBox="0 0 434 455">
  <!-- Generator: Adobe Illustrator 28.7.5, SVG Export Plug-In . SVG Version: 1.2.0 Build 176)  -->
  <g>
    <g id="Capa_1">
      <path d="M215.14,352.57c-15.25,0-30.5.01-45.76,0-9.6-.01-14.26-4.68-14.28-14.28-.02-8-.19-16.01.08-24.01.12-3.61-1-5.78-3.96-7.99-23.52-17.65-38.58-40.79-42.75-70.08-5.5-38.66,6.51-71.69,35.85-97.24,30.76-26.79,66.72-34.09,105.39-21.01,38.78,13.12,63.38,40.81,71.34,80.89,8.75,44.06-6.65,80.07-41.92,107.59-2.78,2.17-3.93,4.21-3.82,7.7.26,8.24.13,16.5.07,24.76-.07,8.93-4.79,13.63-13.73,13.65-15.5.03-31,0-46.51,0ZM251.32,328.27c0-6.94.33-13.68-.09-20.38-.48-7.72,2.58-12.58,9.09-16.91,28.79-19.15,42.01-46.41,38.37-80.75-4.81-45.44-45.36-77.72-91.22-73.71-57.61,5.04-93.07,66.45-68.63,118.88,7.05,15.12,17.55,27.31,31.83,35.93,6.17,3.73,9.01,8.45,8.54,15.66-.39,5.98-.09,12-.07,18,0,1.07.17,2.14.27,3.28h71.89Z"/>
      <path d="M214.95,376.67c7.99,0,15.99-.04,23.98.01,7.31.05,12.67,5.17,12.66,11.97-.02,6.64-5.24,11.95-12.31,12.01-15.99.13-31.97.12-47.96,0-7.29-.05-12.48-5.37-12.39-12.25.08-6.82,5.39-11.72,12.8-11.75,7.74-.03,15.49,0,23.23,0Z"/>
      <path d="M347.13,338.78c-.42,6.31-2.65,10.01-7.13,12.09-4.49,2.08-9.02,1.66-12.6-1.7-6.65-6.24-13.13-12.69-19.36-19.34-4.38-4.67-3.82-11.85.7-16.26,4.51-4.41,11.67-4.79,16.31-.4,6.53,6.19,12.91,12.55,19.01,19.16,1.8,1.96,2.42,5,3.08,6.44Z"/>
      <path d="M83.54,338.1c.75-1.37,1.74-4.44,3.72-6.6,5.48-5.97,11.31-11.63,17.12-17.29,5.52-5.38,12.75-5.49,17.66-.42,4.78,4.92,4.55,12.08-.69,17.41-5.69,5.78-11.43,11.52-17.24,17.18-3.86,3.77-8.83,4.64-13.45,2.46-4.61-2.18-6.89-5.93-7.12-12.73Z"/>
      <path d="M371.46,232.2c-4.12,0-8.24.1-12.35-.02-6.65-.2-11.64-5.11-11.91-11.54-.26-6.25,4.57-12,11.14-12.28,8.71-.37,17.47-.36,26.18-.03,6.84.26,11.51,5.8,11.26,12.47-.23,6.43-5.19,11.21-11.98,11.39-4.11.11-8.23.02-12.35.02Z"/>
      <path d="M58.81,232.19c-4.12,0-8.24.11-12.35-.03-6.59-.22-11.42-4.95-11.69-11.26-.28-6.59,4.1-12.18,10.75-12.5,8.96-.43,17.97-.42,26.93,0,6.62.31,11.16,6.07,10.8,12.5-.36,6.36-5.16,11.06-11.72,11.27-4.24.14-8.48.03-12.72.03Z"/>
      <path d="M227.22,64.01c0,4.12.12,8.25-.03,12.37-.26,6.82-5.08,11.63-11.59,11.81-6.61.18-12.05-4.6-12.3-11.5-.3-8.36-.29-16.75,0-25.11.26-7.26,5.5-11.97,12.36-11.81,6.61.16,11.33,5.1,11.54,12.24.12,3.99.02,8,.02,11.99Z"/>
      <path d="M83.65,101.37c.68-5.22,2.89-8.96,7.34-11.07,4.43-2.09,9-1.82,12.61,1.54,6.57,6.13,12.97,12.46,19.09,19.03,4.22,4.53,3.62,11.59-.71,15.97-4.44,4.49-11.63,5.02-16.26.67-6.45-6.07-12.7-12.38-18.7-18.9-1.72-1.87-2.28-4.8-3.37-7.25Z"/>
      <path d="M346.4,102.72c-.78,1.47-1.75,4.7-3.79,6.95-5.44,6-11.26,11.67-17.1,17.29-4.94,4.76-12.14,4.66-16.84.05-4.74-4.65-5-11.91-.27-16.82,5.88-6.11,11.93-12.06,18.07-17.91,3.72-3.54,8.27-4.03,12.85-1.97,4.47,2.01,6.72,5.75,7.08,12.41Z"/>
    </g>
  </g>
</svg>