<?xml version="1.0" encoding="UTF-8"?>
<svg xmlns="http://www.w3.org/2000/svg" version="1.1" viewBox="0 0 310 281">
  <!-- Generator: Adobe Illustrator 28.7.5, SVG Export Plug-In . SVG Version: 1.2.0 Build 176)  -->
  <g>
    <g id="Capa_1">
      <path d="M161.35,29.67c4.34,1.92,6.8,5.43,8.82,9.61,7.99,16.52,16.2,32.92,24.24,49.41,1.02,2.09,2.17,3.1,4.66,3.44,18.68,2.57,37.32,5.39,55.98,8.09,9.33,1.35,14.4,8.36,11.12,15.78-.83,1.87-2.3,3.57-3.79,5.03-13.55,13.31-27.15,26.58-40.8,39.8-1.66,1.61-2.35,3.02-1.9,5.49,3.35,18.68,6.48,37.39,9.71,56.09,1.61,9.34-3.95,16.22-12.4,14.97-2.15-.32-4.25-1.4-6.22-2.43-16.48-8.62-32.95-17.26-49.35-26.02-2.25-1.2-3.93-1.12-6.14.05-16.75,8.91-33.59,17.64-50.35,26.54-4.57,2.43-9,3.04-13.38-.07-4.6-3.26-5.12-7.92-4.23-13.07,3.24-18.7,6.36-37.41,9.72-56.09.45-2.48-.25-3.88-1.91-5.48-13.56-13.13-27.01-26.37-40.58-39.48-3.78-3.65-6.08-7.59-4.33-12.98,1.8-5.54,6.15-7.38,11.45-8.13,18.67-2.64,37.31-5.46,55.98-8.03,2.48-.34,3.63-1.4,4.65-3.49,8.04-16.49,16.25-32.9,24.24-49.41,2.02-4.17,4.46-7.71,8.82-9.61h6ZM229.64,118.97c.37.23.73.46,1.1.69-.84-.2-1.68-.47-2.53-.59-12.85-1.85-25.68-3.82-38.56-5.45-6.04-.76-9.97-3.54-12.57-9.12-5.32-11.42-11.06-22.65-16.64-33.94-.58-1.17-1.26-2.28-2.13-3.83-.89,1.67-1.56,2.84-2.15,4.03-5.7,11.52-11.49,22.99-17.02,34.58-2.26,4.74-5.67,7.35-10.84,8.03-7.8,1.02-15.57,2.2-23.35,3.34-6.37.93-12.73,1.89-19.64,2.92,1.29,1.36,2.11,2.27,2.98,3.12,9.48,9.25,18.94,18.51,28.45,27.73,3.19,3.09,4.67,6.72,3.91,11.15-1.57,9.1-3.17,18.2-4.73,27.3-.92,5.34-1.78,10.69-2.78,16.71,2.02-1,3.35-1.63,4.66-2.31,11.27-5.91,22.59-11.73,33.77-17.81,4.62-2.51,8.85-2.57,13.47-.08,11.2,6.04,22.51,11.88,33.78,17.79,1.37.72,2.77,1.39,4.43,2.22,0-1.16.09-1.79-.01-2.38-2.09-12.18-3.84-24.43-6.44-36.49-1.68-7.8.04-13.41,5.91-19.02,9.46-9.04,18.01-19.02,26.95-28.6Z"/>
    </g>
  </g>
</svg>