<?xml version="1.0" encoding="UTF-8"?>
<svg id="Capa_1" xmlns="http://www.w3.org/2000/svg" viewBox="0 0 480.5 125">
  <defs>
    <style>
      .cls-1 {
        fill: #f88102;
      }

      .cls-2 {
        fill: #278898;
      }
    </style>
  </defs>
  <path class="cls-2" d="M325.91,30.17h-9.71l-28.25,70.65h7.4c.82,0,1.51-.23,2.07-.69.56-.46.95-.99,1.18-1.58l4.85-12.51h0l4.42-11.45h0l.27-.69.12-.3h0l10.71-27.7c.33-.85.67-1.85,1.01-2.98.34-1.13.7-2.37,1.06-3.72.69,2.66,1.4,4.88,2.12,6.66l10,25.91,5.2,13.46h0l5.17,13.34c.26.66.66,1.2,1.18,1.63.53.43,1.22.64,2.07.64h7.4l-28.25-70.65Z"/>
  <path class="cls-2" d="M431.75,30.17h-9.71l-28.25,70.65h7.4c.82,0,1.51-.23,2.07-.69.56-.46.95-.99,1.18-1.58l4.85-12.51h0l4.42-11.45h0l.27-.69.12-.3h0l10.71-27.7c.33-.85.67-1.85,1.01-2.98.34-1.13.7-2.37,1.06-3.72.69,2.66,1.4,4.88,2.12,6.66l10,25.91,5.2,13.46h0l5.17,13.34c.26.66.66,1.2,1.18,1.63.53.43,1.22.64,2.07.64h7.4l-28.25-70.65Z"/>
  <path class="cls-2" d="M379.67,100.82h-9.71l-28.25-70.65h7.4c.82,0,1.51.23,2.07.69.56.46.95.99,1.18,1.58l4.85,12.51h0l4.42,11.45h0l.27.69.12.3h0l10.71,27.7c.33.85.67,1.85,1.01,2.98.34,1.13.7,2.37,1.06,3.72.69-2.66,1.4-4.88,2.12-6.66l10-25.91,5.2-13.46h0l5.17-13.34c.26-.66.66-1.2,1.18-1.63.53-.43,1.22-.64,2.07-.64h7.4l-28.25,70.65Z"/>
  <path class="cls-2" d="M83.1,86.23c.53,0,1,.22,1.43.64l3.75,4.09c-2.89,3.35-6.4,5.96-10.52,7.84-4.13,1.87-9.1,2.81-14.92,2.81-5.09,0-9.71-.88-13.85-2.64-4.14-1.76-7.68-4.22-10.6-7.39s-5.19-6.98-6.8-11.41c-1.61-4.44-2.42-9.32-2.42-14.64s.86-10.21,2.59-14.64c1.73-4.44,4.15-8.25,7.27-11.44,3.12-3.19,6.86-5.66,11.22-7.42,4.36-1.76,9.16-2.64,14.42-2.64s9.67.8,13.43,2.42c3.76,1.61,7.11,3.8,10.03,6.56l-3.11,4.39c-.23.33-.49.6-.79.81s-.72.32-1.28.32c-.43,0-.88-.16-1.35-.47-.48-.31-1.05-.7-1.7-1.16-.66-.46-1.43-.95-2.32-1.48-.89-.53-1.94-1.02-3.16-1.48s-2.63-.85-4.24-1.16c-1.61-.31-3.47-.47-5.57-.47-3.78,0-7.24.65-10.38,1.95-3.14,1.3-5.84,3.15-8.11,5.55-2.27,2.4-4.03,5.33-5.3,8.78s-1.9,7.31-1.9,11.59.63,8.33,1.9,11.78c1.27,3.45,2.99,6.37,5.18,8.75s4.77,4.2,7.76,5.45c2.99,1.25,6.21,1.87,9.67,1.87,2.1,0,3.99-.12,5.67-.37,1.67-.25,3.23-.63,4.66-1.16,1.43-.53,2.76-1.19,4-2,1.23-.8,2.47-1.77,3.72-2.88.56-.49,1.1-.74,1.63-.74Z"/>
  <path class="cls-1" d="M161.15,50.95c-1.68-4.42-4.04-8.23-7.1-11.44-3.06-3.2-6.73-5.69-11.02-7.47-4.29-1.77-9.03-2.66-14.22-2.66s-9.93.89-14.2,2.66-7.94,4.26-10.99,7.47-5.42,7.02-7.1,11.44-2.52,9.28-2.52,14.57.84,10.15,2.52,14.57,4.04,8.23,7.1,11.41c3.06,3.19,6.72,5.66,10.99,7.42s9.01,2.64,14.2,2.64,9.93-.88,14.22-2.64c4.29-1.76,7.96-4.23,11.02-7.42,3.06-3.19,5.42-6.99,7.1-11.41s2.52-9.28,2.52-14.57-.84-10.15-2.52-14.57ZM153.01,77.5c-1.23,3.55-2.99,6.6-5.23,9.07-2.25,2.48-5.03,4.4-8.24,5.72-3.19,1.31-6.81,1.97-10.73,1.97s-7.48-.66-10.68-1.97c-3.21-1.31-5.99-3.24-8.27-5.72-2.26-2.47-4.03-5.52-5.26-9.07-1.21-3.53-1.83-7.56-1.83-11.98s.61-8.46,1.83-12c1.23-3.57,2.99-6.63,5.26-9.1,2.28-2.48,5.06-4.41,8.26-5.74,3.19-1.33,6.79-2,10.68-2s7.53.67,10.73,2c3.21,1.33,5.98,3.27,8.24,5.75,2.25,2.47,4.01,5.53,5.23,9.1,1.21,3.54,1.83,7.58,1.83,12s-.62,8.45-1.83,11.98Z"/>
  <polygon class="cls-2" points="313.78 74.59 313.78 74.59 314.05 73.9 313.78 74.59"/>
  <polygon class="cls-2" points="314.16 73.6 314.05 73.9 314.16 73.6 314.16 73.6"/>
  <polygon class="cls-2" points="290.84 93.6 290.83 93.61 290.84 93.6 290.84 93.6"/>
  <polygon class="cls-1" points="415.8 100.82 438.72 100.82 426.29 70.43 415.8 100.82"/>
  <polygon class="cls-1" points="309.96 99.99 332.88 99.99 320.45 69.6 309.96 99.99"/>
  <path class="cls-2" d="M239.16,40.87h-.07v-10.7c-.77.01-1.38.09-1.81.24-.46.17-.9.63-1.33,1.38l-23.91,43.44c-.46.85-.87,1.7-1.23,2.54-.36.84-.71,1.72-1.04,2.64-.33-.89-.67-1.76-1.01-2.64-.34-.87-.75-1.7-1.21-2.49l-24.41-43.49c-.43-.76-.87-1.22-1.33-1.38-.46-.16-1.12-.25-1.97-.25h-7.05v70.65h8.38v-51.92c0-.69-.02-1.45-.07-2.27-.05-.82-.12-1.66-.22-2.52l24.75,44.32c.82,1.48,1.97,2.22,3.45,2.22h1.38c1.48,0,2.63-.74,3.45-2.22l24.21-44.18c-.07.82-.12,1.63-.15,2.42-.03.79-.05,1.53-.05,2.22v51.92h8.38v-59.39h-7.14v-.56Z"/>
  <path class="cls-2" d="M298.4,30.17v8.04h-22.83v62.62h-9.56v-62.62h-22.93v-8.04h55.32Z"/>
</svg>